HIERARCHY
ROOT joint_Root
{
	OFFSET 0.0 0.0 0.0
	CHANNELS 6 Xposition Yposition Zposition Zrotation Xrotation Yrotation 
	JOINT Hips
	{
		OFFSET -17.1583 93.1646 452.98
		CHANNELS 6 Xposition Yposition Zposition Zrotation Xrotation Yrotation 
		JOINT Spine
		{
			OFFSET 15.7357 0.0 0.0
			CHANNELS 6 Xposition Yposition Zposition Zrotation Xrotation Yrotation 
			JOINT Chest
			{
				OFFSET 8.98455 -0.406207 0.0
				CHANNELS 6 Xposition Yposition Zposition Zrotation Xrotation Yrotation 
				JOINT Neck
				{
					OFFSET 16.3773 0.0 0.0
					CHANNELS 6 Xposition Yposition Zposition Zrotation Xrotation Yrotation 
					JOINT Head
					{
						OFFSET 6.45672 0.0 0.0
						CHANNELS 6 Xposition Yposition Zposition Zrotation Xrotation Yrotation 
						End Site
						{
							OFFSET 0.0 0.0 0.0
						}
					}
				}
				JOINT Shoulder_L
				{
					OFFSET 12.9942 -0.242716 4.98039
					CHANNELS 6 Xposition Yposition Zposition Zrotation Xrotation Yrotation 
					JOINT UpperArm_L
					{
						OFFSET 5.34809 0.0 0.0
						CHANNELS 6 Xposition Yposition Zposition Zrotation Xrotation Yrotation 
						JOINT LowerArm_L
						{
							OFFSET 24.3286 1.87007e-05 0.0
							CHANNELS 6 Xposition Yposition Zposition Zrotation Xrotation Yrotation 
							JOINT Hand_L
							{
								OFFSET 22.2916 0.0 0.0
								CHANNELS 6 Xposition Yposition Zposition Zrotation Xrotation Yrotation 
								End Site
								{
									OFFSET 0.0 0.0 0.0
								}
							}
						}
					}
				}
				JOINT Shoulder_R
				{
					OFFSET 12.9945 -0.242716 -4.98039
					CHANNELS 6 Xposition Yposition Zposition Zrotation Xrotation Yrotation 
					JOINT UpperArm_R
					{
						OFFSET -5.34813 0.0 0.0
						CHANNELS 6 Xposition Yposition Zposition Zrotation Xrotation Yrotation 
						JOINT LowerArm_R
						{
							OFFSET -24.3289 0.000322201 0.0
							CHANNELS 6 Xposition Yposition Zposition Zrotation Xrotation Yrotation 
							JOINT Hand_R
							{
								OFFSET -22.2915 -0.000108084 0.0
								CHANNELS 6 Xposition Yposition Zposition Zrotation Xrotation Yrotation 
								End Site
								{
									OFFSET 0.0 0.0 0.0
								}
							}
						}
					}
				}
			}
		}
		JOINT UpperLeg_L
		{
			OFFSET -2.19248 -6.46944 0.0
			CHANNELS 6 Xposition Yposition Zposition Zrotation Xrotation Yrotation 
			JOINT LowerLeg_L
			{
				OFFSET 39.0811 0.0 -1.23785e-05
				CHANNELS 6 Xposition Yposition Zposition Zrotation Xrotation Yrotation 
				JOINT Foot_L
				{
					OFFSET 40.9854 0.0 -1.26872e-05
					CHANNELS 6 Xposition Yposition Zposition Zrotation Xrotation Yrotation 
					JOINT Toes_L
					{
						OFFSET 11.7543 0.0 0.0
						CHANNELS 6 Xposition Yposition Zposition Zrotation Xrotation Yrotation 
						End Site
						{
							OFFSET 0.0 0.0 0.0
						}
					}
				}
			}
		}
		JOINT UpperLeg_R
		{
			OFFSET -2.19251 6.46944 0.0
			CHANNELS 6 Xposition Yposition Zposition Zrotation Xrotation Yrotation 
			JOINT LowerLeg_R
			{
				OFFSET -39.0811 -0.00228153 -0.0401928
				CHANNELS 6 Xposition Yposition Zposition Zrotation Xrotation Yrotation 
				JOINT Foot_R
				{
					OFFSET -40.9854 0.0 0.0
					CHANNELS 6 Xposition Yposition Zposition Zrotation Xrotation Yrotation 
					JOINT Toes_R
					{
						OFFSET -11.7543 0.0 0.0
						CHANNELS 6 Xposition Yposition Zposition Zrotation Xrotation Yrotation 
						End Site
						{
							OFFSET 0.0 0.0 0.0
						}
					}
				}
			}
		}
	}
}
MOTION
Frames:	4
Frame Time:	0.0333333
0.000000 0.000000 0.000000 0.000000 0.000000 -0.000000 -2.400470 92.649200 1.501380 88.015000 1.503890 5.675760 15.735700 0.000005 -0.000001 82.546000 85.795000 -80.196600 8.984550 -0.406207 -0.000000 0.602818 -1.237430 4.701890 16.377300 -0.000001 -0.000001 0.712179 2.607170 -0.680530 6.456720 -0.000001 -0.000000 3.973650 4.777290 -3.417270 12.994200 -0.242716 4.980390 -91.718400 5.964480 -73.896100 5.348090 -0.000007 -0.000001 -76.793500 20.619000 2.853230 24.328600 0.000019 0.000005 10.712800 24.560400 -24.472600 22.291600 -0.000001 0.000005 -3.672660 5.045620 6.333810 12.994500 -0.242716 -4.980390 89.851000 0.537721 -74.517400 -5.348130 -0.000001 -0.000004 -72.542200 17.746700 -6.579120 -24.328900 0.000322 -0.000009 -0.181139 -1.725910 -5.977190 -22.291500 -0.000108 -0.000004 -12.323600 5.097820 5.157590 -2.192480 -6.469440 -0.000000 -171.487000 -4.421640 3.647770 39.081100 -0.000007 -0.000012 0.000215 -0.000705 17.024700 40.985400 -0.000006 -0.000013 -1.428850 15.283100 -69.668700 11.754300 -0.000000 0.000003 -0.001842 0.194353 -8.691880 -2.192510 6.469440 -0.000001 178.056000 7.379050 -174.729000 -39.081100 -0.002282 -0.040193 0.066457 -0.229388 15.386800 -40.985400 0.000008 0.000006 -2.242940 4.193570 -70.807100 -11.754300 -0.000006 -0.000006 -0.011140 0.279636 -5.210110
0.000000 0.000000 0.000000 0.000000 0.000000 -0.000000 -2.168680 92.668100 1.486420 87.983900 1.394020 5.401950 15.735700 0.000005 -0.000001 80.766400 85.842900 -78.529200 8.984550 -0.406207 -0.000000 0.473490 -1.475970 4.477620 16.377300 -0.000001 -0.000001 0.435393 2.805050 -1.141690 6.456720 -0.000001 -0.000000 3.739590 5.103960 -4.810500 12.994200 -0.242716 4.980390 -91.763500 6.146490 -73.956900 5.348090 -0.000007 -0.000001 -76.313100 19.150200 3.293930 24.328600 0.000019 0.000005 10.656200 24.326200 -24.549700 22.291600 -0.000001 0.000005 -3.623040 5.054770 6.131960 12.994500 -0.242716 -4.980390 89.874600 0.436663 -73.976800 -5.348130 -0.000001 -0.000004 -71.854400 7.635880 -8.412070 -24.328900 0.000322 -0.000009 -0.059731 -4.995710 -0.711652 -22.291500 -0.000108 -0.000004 -10.472200 5.060150 6.011320 -2.192480 -6.469440 -0.000000 -171.564000 -4.872950 3.352440 39.081100 -0.000007 -0.000012 -0.000434 0.001410 17.100000 40.985400 -0.000006 -0.000013 -1.212270 15.563000 -69.717100 11.754300 -0.000000 0.000003 -0.002026 0.196672 -8.597580 -2.192510 6.469440 -0.000001 177.908000 7.398020 -174.938000 -39.081100 -0.002282 -0.040193 0.059156 -0.205668 15.186400 -40.985400 0.000008 0.000006 -2.655060 4.409020 -70.579400 -11.754300 -0.000006 -0.000006 -0.011231 0.280286 -5.183500
0.000000 0.000000 0.000000 0.000000 0.000000 -0.000000 -1.942640 92.682000 1.543770 87.917100 1.283070 5.135820 15.735700 0.000005 -0.000001 79.752600 85.929900 -77.762700 8.984550 -0.406207 -0.000000 0.275161 -1.577730 3.981160 16.377300 -0.000001 -0.000001 0.105255 2.847500 -1.495810 6.456720 -0.000001 -0.000000 3.634740 5.281080 -5.854560 12.994200 -0.242716 4.980390 -91.781200 6.262420 -74.088200 5.348090 -0.000007 -0.000001 -75.454100 18.133900 3.478930 24.328600 0.000019 0.000005 10.661000 24.619500 -24.317000 22.291600 -0.000001 0.000005 -3.575370 5.057800 6.064700 12.994500 -0.242716 -4.980390 90.019900 -0.068184 -73.752100 -5.348130 -0.000001 -0.000004 -70.633700 -2.229010 -9.799430 -24.328900 0.000322 -0.000009 0.000483 -9.574230 -0.000056 -22.291500 -0.000108 -0.000004 -9.224950 5.022720 6.827770 -2.192480 -6.469440 -0.000000 -171.686000 -4.958780 3.116440 39.081100 -0.000007 -0.000012 -0.000144 0.000465 17.176900 40.985400 -0.000006 -0.000013 -1.041190 15.441900 -69.854000 11.754300 -0.000000 0.000003 -0.001947 0.195674 -8.638160 -2.192510 6.469440 -0.000001 177.756000 7.503630 -175.025000 -39.081100 -0.002282 -0.040193 0.049141 -0.172433 14.878100 -40.985400 0.000008 0.000006 -3.150190 4.749460 -70.301800 -11.754300 -0.000006 -0.000006 -0.011144 0.279660 -5.209130
0.000000 0.000000 0.000000 0.000000 0.000000 -0.000000 -1.712240 92.694100 1.604580 87.872700 1.198180 4.773300 15.735700 0.000005 -0.000001 80.686300 86.057500 -79.091700 8.984550 -0.406207 -0.000000 0.036351 -1.383280 3.187780 16.377300 -0.000001 -0.000001 -0.477717 2.757910 -1.860500 6.456720 -0.000001 -0.000000 3.553360 5.047570 -6.665560 12.994200 -0.242716 4.980390 -91.774600 6.250480 -74.115300 5.348090 -0.000007 -0.000001 -74.276800 17.591300 3.095350 24.328600 0.000019 0.000005 10.561000 25.200000 -23.647600 22.291600 -0.000001 0.000005 -3.426660 5.054360 6.140920 12.994500 -0.242716 -4.980390 90.215700 -0.722769 -73.387200 -5.348130 -0.000001 -0.000004 -68.452900 -11.136100 -10.172400 -24.328900 0.000322 -0.000009 -0.001043 -11.481600 -0.000066 -22.291500 -0.000108 -0.000004 -8.430170 4.963320 8.087560 -2.192480 -6.469440 -0.000000 -171.881000 -4.823090 2.771320 39.081100 -0.000007 -0.000012 -0.000885 0.002850 17.239500 40.985400 -0.000006 -0.000013 -0.902066 15.128800 -69.937400 11.754300 -0.000000 0.000003 -0.002058 0.197074 -8.581230 -2.192510 6.469440 -0.000001 177.589000 7.699990 -175.216000 -39.081100 -0.002282 -0.040193 0.041852 -0.148001 14.589000 -40.985400 0.000008 0.000006 -3.566440 5.126330 -70.063800 -11.754300 -0.000006 -0.000006 -0.011291 0.280712 -5.166080
